<?xml version="1.0" encoding="utf-8"?>
<!-- Generator: Adobe Illustrator 16.0.0, SVG Export Plug-In . SVG Version: 6.00 Build 0)  -->
<!DOCTYPE svg PUBLIC "-//W3C//DTD SVG 1.1//EN" "http://www.w3.org/Graphics/SVG/1.1/DTD/svg11.dtd">
<svg version="1.1" id="Layer_1" xmlns="http://www.w3.org/2000/svg" xmlns:xlink="http://www.w3.org/1999/xlink" x="0px" y="0px"
	 width="207px" height="120px" viewBox="0 0 207 120" enable-background="new 0 0 207 120" xml:space="preserve">
<g id="Layer_2" display="none">
	<rect x="-294" y="-200" display="inline" fill="#303030" width="792" height="608"/>
</g>
<g id="Layer_1_1_">
	<g>
		<g>
			<path fill="#F1AD6F" d="M64.562,92.219h1.976l6.02,14.034l6.119-14.034h1.976l-7.903,18.166h-0.395L64.562,92.219z"/>
			<path fill="#F1AD6F" d="M92.108,92.219h2.088l4.648,7.492l4.574-7.492h2.102l-5.755,9.484v8.682h-1.791v-8.682L92.108,92.219z"/>
			<path fill="#F1AD6F" d="M122.682,92.219l8.471,18.166h-1.959l-2.857-5.978h-7.824l-2.83,5.978h-2.025l8.582-18.166H122.682z
				 M122.452,96.078l-3.112,6.574h6.21L122.452,96.078z"/>
			<path fill="#F1AD6F" d="M141.954,107.001l1.544-0.928c1.088,2.002,2.342,3.002,3.768,3.002c0.609,0,1.18-0.144,1.717-0.427
				c0.535-0.283,0.941-0.666,1.224-1.144c0.278-0.478,0.419-0.981,0.419-1.519c0-0.608-0.205-1.205-0.618-1.791
				c-0.567-0.807-1.604-1.777-3.11-2.914c-1.516-1.145-2.457-1.973-2.828-2.482c-0.643-0.855-0.965-1.781-0.965-2.777
				c0-0.791,0.19-1.511,0.569-2.162c0.378-0.649,0.911-1.164,1.599-1.537c0.688-0.375,1.436-0.563,2.242-0.563
				c0.856,0,1.655,0.213,2.401,0.637c0.745,0.422,1.533,1.203,2.365,2.34l-1.482,1.123c-0.684-0.904-1.265-1.502-1.748-1.789
				c-0.479-0.289-1.006-0.432-1.573-0.432c-0.732,0-1.332,0.221-1.797,0.666c-0.466,0.445-0.697,0.992-0.697,1.644
				c0,0.395,0.082,0.778,0.246,1.147c0.164,0.37,0.465,0.774,0.9,1.211c0.239,0.229,1.021,0.834,2.348,1.814
				c1.571,1.161,2.651,2.193,3.234,3.1c0.586,0.906,0.878,1.815,0.878,2.729c0,1.315-0.5,2.46-1.501,3.433s-2.217,1.457-3.648,1.457
				c-1.104,0-2.104-0.295-3-0.882C143.539,109.369,142.713,108.384,141.954,107.001z"/>
		</g>
		<g>
			<g>
				<path fill="#094D5D" d="M98.941,65.782c-0.392,0.448-0.867,0.852-1.424,1.214c-0.559,0.363-1.187,0.6-1.884,0.712
					c-0.699,0.112-1.438,0.112-2.219,0c-0.783-0.112-1.537-0.39-2.261-0.837c-0.783-0.446-1.285-1.27-1.507-2.471
					c-0.224-1.199-0.306-2.455-0.251-3.768c0.055-1.312,0.222-2.498,0.502-3.56c0.279-1.06,0.557-1.702,0.837-1.926
					c0.614-0.446,1.34-0.516,2.178-0.209c0.837,0.307,1.423,0.684,1.758,1.13c0.167,0.224,0.237,0.601,0.209,1.13
					c-0.029,0.532-0.084,1.16-0.167,1.884c-0.083,0.726-0.182,1.494-0.293,2.303c-0.113,0.811-0.113,1.578,0,2.303
					c0.055,0.615,0.222,1.076,0.502,1.383c0.279,0.308,0.586,0.475,0.921,0.502c0.335,0.029,0.67-0.043,1.005-0.209
					c0.335-0.168,0.641-0.391,0.921-0.67c0.502-0.613,0.948-1.283,1.34-2.01c0.39-0.726,0.697-1.367,0.921-1.926
					c0.167-0.614,0.488-0.88,0.963-0.796c0.474,0.084,0.628,0.517,0.461,1.298c-0.224,0.783-0.503,1.495-0.838,2.137
					C100.281,64.038,99.722,64.833,98.941,65.782 M94,40.996c0.781-0.056,1.619,0.196,2.512,0.753
					c0.893,0.559,1.283,1.256,1.172,2.093c-0.113,0.392-0.322,0.824-0.628,1.298c-0.307,0.476-0.67,0.921-1.088,1.34
					c-0.418,0.418-0.81,0.796-1.173,1.131c-0.363,0.335-0.628,0.531-0.795,0.586c-0.448,0.28-0.894,0.376-1.34,0.293
					c-0.447-0.084-0.838-0.251-1.172-0.502c-0.335-0.251-0.602-0.558-0.796-0.921c-0.196-0.363-0.322-0.712-0.377-1.047
					c-0.056-0.335,0.027-0.781,0.251-1.34c0.223-0.558,0.516-1.102,0.879-1.633c0.363-0.53,0.768-1.004,1.215-1.423
					C93.106,41.205,93.552,40.996,94,40.996"/>
			</g>
			<g>
				<path fill="#094D5D" d="M127.662,60.757c0.223-0.557,0.572-0.795,1.047-0.711c0.473,0.083,0.6,0.517,0.376,1.297
					c-0.167,0.783-0.446,1.495-0.837,2.136c-0.391,0.644-0.921,1.438-1.592,2.388c-0.836,1.116-1.926,1.981-3.264,2.596
					c-1.342,0.614-2.568,0.824-3.686,0.627c-1.118-0.194-1.955-0.907-2.514-2.135s-0.502-3.099,0.168-5.611
					c0.334-1.172,0.445-1.953,0.334-2.344c-0.112-0.39-0.35-0.502-0.711-0.335c-0.362,0.167-0.81,0.531-1.34,1.089
					c-0.531,0.559-1.033,1.187-1.508,1.884c-0.475,0.699-0.865,1.411-1.173,2.137c-0.307,0.726-0.461,1.313-0.461,1.758
					c0.058,0.67-0.099,1.145-0.46,1.424c-0.363,0.279-0.781,0.404-1.256,0.377s-0.908-0.152-1.299-0.377
					c-0.391-0.223-0.586-0.502-0.586-0.837c-0.057-0.726,0-1.536,0.168-2.429s0.349-1.729,0.545-2.513
					c0.193-0.781,0.334-1.437,0.418-1.968c0.084-0.53,0.014-0.85-0.209-0.963c-0.336-0.111-0.838,0.084-1.508,0.586
					c-0.67,0.503-1.368,1.188-2.094,2.052c-0.727,0.866-1.382,1.856-1.969,2.974c-0.585,1.117-0.991,2.232-1.214,3.35
					c-0.112,0.669-0.516,1.063-1.213,1.172c-0.699,0.113-1.271-0.139-1.717-0.753c-0.223-0.278-0.348-0.976-0.377-2.094
					c-0.027-1.116,0.015-2.315,0.125-3.601c0.112-1.285,0.306-2.499,0.586-3.644c0.279-1.144,0.586-1.884,0.921-2.219
					c0.446-0.39,1.129-0.627,2.051-0.711c0.921-0.084,1.604,0.014,2.052,0.293c0.392,0.279,0.517,0.685,0.376,1.214
					c-0.139,0.531-0.349,1.381-0.627,2.554c0.504-0.781,1.157-1.591,1.969-2.429c0.809-0.837,1.646-1.591,2.513-2.261
					c0.864-0.67,1.716-1.2,2.553-1.591c0.839-0.39,1.563-0.558,2.179-0.503c0.389,0.113,0.654,0.377,0.795,0.796
					c0.139,0.418,0.195,0.893,0.168,1.423c-0.029,0.532-0.127,1.089-0.293,1.675c-0.168,0.587-0.363,1.076-0.586,1.466
					c1.061-1.116,2.287-1.995,3.685-2.637c1.395-0.641,2.538-0.739,3.434-0.293c0.613,0.335,0.962,1.005,1.046,2.009
					c0.084,1.005-0.097,2.234-0.544,3.685c-0.502,1.731-0.698,3.029-0.586,3.896c0.11,0.865,0.362,1.41,0.752,1.633
					c0.392,0.224,0.882,0.182,1.468-0.126c0.586-0.306,1.131-0.767,1.633-1.381s0.963-1.284,1.382-2.011
					C127.202,62.042,127.496,61.373,127.662,60.757"/>
			</g>
			<g>
				<path fill="#094D5D" d="M138.045,55.733c0.837,0.67,1.424,1.537,1.76,2.596c0.11-0.222,0.209-0.389,0.293-0.502
					c0.082-0.111,0.18-0.223,0.291-0.335c0.615-0.446,1.34-0.516,2.18-0.209c0.836,0.308,1.423,0.685,1.759,1.131
					c0.167,0.224,0.235,0.46,0.208,0.711s-0.084,0.573-0.168,0.963c-0.082,0.392-0.167,0.852-0.25,1.383
					c-0.085,0.53-0.07,1.158,0.042,1.883c0.055,0.615,0.208,1.088,0.461,1.424c0.25,0.334,0.528,0.543,0.836,0.628
					c0.308,0.083,0.629,0.056,0.964-0.085c0.334-0.137,0.641-0.348,0.921-0.627c0.503-0.613,0.964-1.283,1.382-2.01
					c0.418-0.725,0.713-1.367,0.879-1.926c0.223-0.613,0.572-0.879,1.047-0.795s0.601,0.517,0.377,1.298
					c-0.223,0.783-0.502,1.495-0.838,2.136c-0.334,0.643-0.864,1.438-1.59,2.387c-0.783,0.949-1.898,1.605-3.35,1.968
					c-1.453,0.364-2.96,0.069-4.521-0.879c-0.838-0.558-1.396-1.478-1.676-2.763c-0.111,0.224-0.336,0.559-0.67,1.005
					c-0.615,0.782-1.313,1.438-2.095,1.968c-0.78,0.531-1.577,0.895-2.386,1.089c-0.811,0.197-1.604,0.224-2.387,0.083
					c-0.783-0.138-1.508-0.46-2.177-0.962c-1.286-1.004-1.968-2.399-2.053-4.187c-0.083-1.787,0.487-3.488,1.717-5.108
					c1.228-1.618,2.724-2.637,4.479-3.056C135.238,54.519,136.762,54.785,138.045,55.733 M133.857,65.782
					c0.781,0.28,1.617,0.028,2.513-0.753c0.892-0.781,1.563-1.813,2.01-3.098c0.392-1.117,0.431-2.095,0.126-2.933
					c-0.308-0.837-0.852-1.395-1.633-1.674c-0.782-0.279-1.563-0.223-2.348,0.167c-0.779,0.391-1.396,1.229-1.84,2.513
					c-0.504,1.285-0.644,2.499-0.418,3.642C132.488,64.791,133.021,65.503,133.857,65.782"/>
			</g>
			<g>
				<path fill="#094D5D" d="M151.023,57.994c0.558-0.78,1.213-1.424,1.968-1.926c0.754-0.502,1.549-0.865,2.387-1.088
					c0.837-0.223,1.646-0.264,2.429-0.126c0.781,0.14,1.508,0.434,2.178,0.879c-0.225-2.399-0.267-4.953-0.125-7.661
					c0.138-2.708,0.432-5.401,0.877-8.082c0.447-2.679,1.049-5.261,1.802-7.746c0.754-2.483,1.619-4.674,2.597-6.572
					c0.977-1.897,2.079-3.405,3.307-4.522c1.229-1.116,2.568-1.675,4.021-1.675c1.729,0,2.748,1.046,3.057,3.14
					c0.307,2.093,0.068,4.857-0.711,8.29c-0.783,3.433-2.066,7.342-3.854,11.723c-1.787,4.384-3.936,8.891-6.447,13.524
					c0.391,2.568,0.92,4.676,1.592,6.323c0.67,1.646,1.563,2.525,2.68,2.637c0.781,0.058,1.576-0.32,2.387-1.129
					c0.809-0.809,1.438-1.885,1.884-3.225c0.277-0.949,0.642-1.325,1.089-1.13c0.445,0.196,0.588,0.711,0.418,1.549
					c-0.111,0.503-0.363,1.13-0.754,1.884c-0.39,0.754-0.906,1.494-1.549,2.22c-0.643,0.727-1.41,1.34-2.303,1.843
					c-0.893,0.502-1.926,0.753-3.1,0.753c-1.338,0-2.471-0.528-3.391-1.59c-0.922-1.06-1.661-2.457-2.22-4.187
					c-0.446,0.67-1.005,1.438-1.675,2.303s-1.453,1.619-2.344,2.261c-0.896,0.644-1.844,1.075-2.849,1.298
					c-1.005,0.225-2.01,0-3.015-0.67c-1.396-0.893-2.105-2.26-2.135-4.104C149.195,61.343,149.796,59.614,151.023,57.994
					 M154.877,64.943c0.837,0.281,1.757-0.012,2.764-0.879c1.004-0.864,2.008-2.162,3.014-3.894l-0.336-1.842
					c-0.392-0.39-0.865-0.725-1.424-1.004c-0.781-0.28-1.59-0.181-2.427,0.293c-0.839,0.474-1.508,1.354-2.011,2.638
					c-0.448,1.285-0.628,2.344-0.545,3.182C153.996,64.273,154.316,64.777,154.877,64.943 M168.943,24.248
					c-1.006,0.279-1.871,1.396-2.596,3.35c-0.727,1.955-1.299,4.341-1.718,7.159c-0.418,2.82-0.669,5.891-0.753,9.211
					c-0.085,3.322,0.014,6.436,0.292,9.337c0.838-1.897,1.675-3.978,2.513-6.238c0.838-2.262,1.576-4.494,2.219-6.7
					c0.643-2.204,1.188-4.325,1.634-6.363s0.696-3.811,0.754-5.318c0.056-1.507-0.099-2.679-0.459-3.517
					C170.463,24.332,169.836,24.025,168.943,24.248"/>
			</g>
			<g>
				<path fill="#094D5D" d="M182.509,56.654c-0.446,0.28-0.851,0.727-1.214,1.34c-0.363,0.615-0.656,1.285-0.879,2.01
					c-0.225,0.727-0.335,1.453-0.335,2.178c0,0.726,0.11,1.368,0.335,1.926c0.167,0.447,0.503,0.824,1.005,1.129
					c0.503,0.309,1.101,0.503,1.8,0.588c0.698,0.083,1.438,0.027,2.221-0.168c0.779-0.195,1.508-0.629,2.177-1.299
					c1.06-1.004,1.813-2.205,2.262-3.601c0.054-0.278,0.194-0.487,0.418-0.628c0.224-0.138,0.419-0.181,0.587-0.125
					c0.166,0.057,0.307,0.182,0.418,0.377c0.111,0.196,0.111,0.49,0,0.879c-0.224,0.783-0.503,1.467-0.837,2.053
					c-0.336,0.586-0.728,1.187-1.174,1.799c-0.837,1.119-1.883,2.082-3.14,2.891c-1.256,0.809-2.514,1.381-3.77,1.716
					s-2.441,0.406-3.559,0.209c-1.117-0.194-1.981-0.712-2.596-1.549c-0.447-0.558-0.711-1.298-0.795-2.219s0-1.884,0.25-2.89
					c0.25-1.004,0.655-2.021,1.215-3.056c0.558-1.032,1.256-1.968,2.093-2.805c-0.668,0.112-1.284,0.154-1.843,0.126
					c-0.559-0.028-1.061-0.07-1.506-0.126c-0.225,0.726-0.435,1.438-0.629,2.135c-0.195,0.699-0.35,1.214-0.461,1.55
					c-0.279,0.67-0.656,0.963-1.129,0.879c-0.475-0.084-0.601-0.488-0.378-1.215c0.168-0.557,0.334-1.172,0.502-1.842
					s0.336-1.312,0.503-1.926c-1.061-0.446-1.744-1.06-2.052-1.842c-0.308-0.782-0.405-1.535-0.293-2.261
					c0.112-0.67,0.362-1.256,0.754-1.758s0.837-0.893,1.339-1.172c0.504-0.279,0.991-0.446,1.467-0.503
					c0.474-0.055,0.879,0.057,1.215,0.335c0.613,0.558,0.863,1.312,0.752,2.261c-0.11,0.95-0.363,1.982-0.752,3.098
					c0.166,0.167,0.57,0.293,1.213,0.376c0.642,0.083,1.604-0.042,2.89-0.376c1.283-0.279,2.08-0.196,2.388,0.251
					C183.275,55.846,183.123,56.265,182.509,56.654"/>
			</g>
			<g>
				<path fill="#094D5D" d="M199.423,65.782c-0.391,0.448-0.866,0.852-1.424,1.214c-0.56,0.363-1.187,0.6-1.885,0.712
					c-0.697,0.112-1.437,0.112-2.218,0c-0.782-0.112-1.537-0.39-2.262-0.837c-0.783-0.446-1.285-1.27-1.508-2.471
					c-0.225-1.199-0.307-2.455-0.251-3.768c0.056-1.312,0.222-2.498,0.502-3.56c0.278-1.06,0.558-1.702,0.837-1.926
					c0.615-0.446,1.342-0.516,2.18-0.209c0.836,0.307,1.422,0.684,1.758,1.13c0.166,0.224,0.236,0.601,0.209,1.13
					c-0.028,0.532-0.084,1.16-0.168,1.884c-0.084,0.726-0.182,1.494-0.293,2.303c-0.111,0.811-0.111,1.578,0,2.303
					c0.056,0.615,0.223,1.076,0.502,1.383c0.279,0.308,0.588,0.475,0.922,0.502c0.336,0.029,0.671-0.043,1.005-0.209
					c0.335-0.168,0.642-0.391,0.921-0.67c0.503-0.613,0.948-1.283,1.341-2.01c0.39-0.726,0.696-1.367,0.921-1.926
					c0.168-0.614,0.487-0.88,0.963-0.796c0.474,0.084,0.629,0.517,0.461,1.298c-0.225,0.783-0.502,1.495-0.838,2.137
					C200.764,64.038,200.203,64.833,199.423,65.782 M194.482,40.996c0.781-0.056,1.617,0.196,2.513,0.753
					c0.892,0.559,1.282,1.256,1.171,2.093c-0.111,0.392-0.32,0.824-0.627,1.298c-0.309,0.476-0.671,0.921-1.089,1.34
					c-0.419,0.418-0.81,0.796-1.173,1.131s-0.629,0.531-0.795,0.586c-0.447,0.28-0.895,0.376-1.34,0.293
					c-0.449-0.084-0.838-0.251-1.174-0.502c-0.334-0.251-0.6-0.558-0.795-0.921c-0.195-0.363-0.322-0.712-0.377-1.047
					c-0.059-0.335,0.028-0.781,0.251-1.34c0.224-0.558,0.517-1.102,0.88-1.633c0.362-0.53,0.766-1.004,1.215-1.423
					C193.589,41.205,194.035,40.996,194.482,40.996"/>
			</g>
			<g>
				<g>
					<g>
						<defs>
							<rect id="SVGID_1_" x="2" y="5.171" width="91.335" height="79.166"/>
						</defs>
						<clipPath id="SVGID_2_">
							<use xlink:href="#SVGID_1_"  overflow="visible"/>
						</clipPath>
						<g clip-path="url(#SVGID_2_)">
							<path fill="#F1AD6F" d="M41.24,7.39c1.973,1.583,3.5,3.555,4.582,5.919c1.081,2.362,1.769,4.965,2.062,7.802
								c0.292,2.838,0.226,5.862-0.201,9.072c-0.427,3.211-1.128,6.487-2.102,9.831c0.547-0.064,1.077-0.097,1.589-0.094
								c0.512,0.003,1.041,0.006,1.589,0.009c3.552,0.156,7.177-0.03,10.87-0.559c2.616-3.677,5.487-7.097,8.614-10.259
								c3.125-3.162,6.164-5.76,9.114-7.795c2.948-2.035,5.672-3.354,8.171-3.955c2.498-0.602,4.46-0.182,5.888,1.26
								c1.835,1.924,2.353,4.08,1.556,6.468c-0.799,2.389-2.605,4.72-5.418,6.994c-2.815,2.276-6.466,4.323-10.951,6.146
								c-4.487,1.823-9.466,3.129-14.938,3.92c-1.381,2.591-2.454,5.183-3.219,7.775c-0.767,2.594-1.154,5.053-1.167,7.375
								c-0.012,2.325,0.318,4.461,0.992,6.413c0.672,1.952,1.758,3.546,3.255,4.785c1.43,1.237,3.287,1.931,5.578,2.079
								c2.288,0.15,4.512-0.318,6.671-1.4c2.159-1.082,3.995-2.814,5.512-5.199c1.515-2.385,2.181-5.491,1.997-9.319
								c-0.065-0.821,0.023-1.451,0.266-1.896c0.241-0.442,0.516-0.664,0.823-0.662c0.308,0.001,0.597,0.244,0.868,0.722
								c0.27,0.479,0.471,1.232,0.603,2.258c0.327,2.736,0.109,5.418-0.657,8.045c-0.766,2.628-1.906,5.014-3.42,7.159
								c-1.515,2.145-3.319,3.981-5.411,5.508c-2.094,1.526-4.304,2.608-6.63,3.247c-2.328,0.636-4.687,0.76-7.077,0.373
								c-2.391-0.389-4.641-1.477-6.75-3.264c-2.178-1.789-3.585-3.949-4.221-6.481c-0.637-2.531-0.725-5.284-0.265-8.255
								c0.46-2.97,1.398-6.075,2.817-9.314c1.417-3.238,3.16-6.425,5.227-9.559c-1.369,0.13-2.718,0.208-4.051,0.235
								c-1.333,0.028-2.684,0.003-4.049-0.073c-0.82-0.004-1.606-0.008-2.358-0.012c-0.753-0.004-1.504,0.027-2.256,0.091
								c-1.251,3.889-2.809,7.743-4.674,11.56c-1.865,3.819-3.884,7.413-6.054,10.785c-2.17,3.373-4.443,6.42-6.814,9.141
								c-2.373,2.721-4.742,4.93-7.109,6.627c-2.367,1.696-4.646,2.777-6.835,3.246c-2.19,0.465-4.17,0.114-5.941-1.057
								c-2.521-1.586-4.133-3.68-4.836-6.279c-0.705-2.601-0.639-5.402,0.197-8.406c0.835-3.002,2.389-6.069,4.661-9.203
								c2.272-3.131,5.122-6.004,8.554-8.619c3.431-2.613,7.372-4.865,11.825-6.756c4.452-1.89,9.277-3.095,14.475-3.615
								c1.115-4.3,1.461-8.485,1.04-12.554c-0.424-4.068-1.994-7.716-4.711-10.943c-1.767-2.06-3.673-3.315-5.721-3.772
								c-2.048-0.455-3.98-0.329-5.794,0.379c-1.815,0.708-3.377,1.846-4.683,3.411c-1.308,1.566-2.086,3.321-2.334,5.268
								c-0.25,1.947,0.149,3.948,1.199,6.003c1.048,2.057,3.038,3.912,5.969,5.567c1.294,0.691,1.75,1.514,1.371,2.468
								c-0.381,0.956-1.223,1.685-2.523,2.191c-1.302,0.506-2.874,0.584-4.717,0.231c-1.844-0.35-3.581-1.521-5.21-3.512
								c-1.495-1.785-2.219-3.959-2.17-6.522c0.047-2.563,0.658-5.139,1.834-7.731c1.175-2.59,2.76-5.06,4.755-7.408
								c1.994-2.347,4.174-4.233,6.54-5.656c2.366-1.423,4.795-2.23,7.292-2.423C36.827,5.009,39.129,5.738,41.24,7.39
								 M12.699,74.086c1.021,0.689,2.302,0.816,3.843,0.379c1.54-0.436,3.218-1.298,5.037-2.587
								c1.817-1.288,3.67-2.955,5.563-4.996c1.89-2.04,3.729-4.319,5.521-6.839c1.789-2.519,3.444-5.227,4.963-8.125
								c1.517-2.896,2.763-5.845,3.737-8.849c-4.104,0.526-7.851,1.532-11.243,3.017c-3.39,1.487-6.373,3.232-8.947,5.234
								c-2.573,2.003-4.704,4.146-6.389,6.426c-1.688,2.282-2.895,4.479-3.623,6.594c-0.729,2.116-0.979,4.044-0.748,5.789
								C10.642,71.872,11.404,73.191,12.699,74.086 M74.353,27.452c-2.196,1.63-4.17,3.414-5.923,5.353
								c-1.752,1.938-3.318,3.93-4.695,5.973c3.488-0.598,6.687-1.417,9.598-2.462c2.91-1.043,5.12-2.143,6.63-3.297
								c1.508-1.223,2.353-2.413,2.53-3.576c0.176-1.16-0.075-2.084-0.754-2.772c-0.681-0.685-1.704-1.016-3.071-0.989
								C77.3,25.708,75.861,26.298,74.353,27.452"/>
						</g>
					</g>
					<g>
						<defs>
							<rect id="SVGID_3_" x="2" y="5.171" width="91.335" height="79.166"/>
						</defs>
						<clipPath id="SVGID_4_">
							<use xlink:href="#SVGID_3_"  overflow="visible"/>
						</clipPath>
						<g clip-path="url(#SVGID_4_)">
							<path fill="#054D5E" d="M42.107,10.328c1.816,1.457,3.223,3.272,4.218,5.448c0.995,2.175,1.628,4.57,1.897,7.181
								c0.269,2.613,0.208,5.396-0.185,8.35c-0.393,2.956-1.038,5.972-1.934,9.048c0.503-0.059,0.991-0.089,1.463-0.086
								c0.472,0.003,0.958,0.005,1.462,0.008c3.27,0.144,6.606-0.028,10.005-0.514c2.408-3.384,5.05-6.532,7.928-9.442
								c2.878-2.91,5.674-5.302,8.389-7.175c2.714-1.873,5.221-3.087,7.521-3.641c2.299-0.555,4.105-0.167,5.42,1.16
								c1.689,1.771,2.165,3.755,1.431,5.953c-0.736,2.199-2.397,4.344-4.987,6.438c-2.591,2.095-5.951,3.979-10.08,5.657
								c-4.129,1.677-8.713,2.88-13.749,3.608c-1.271,2.385-2.258,4.77-2.962,7.157c-0.705,2.387-1.062,4.65-1.073,6.788
								c-0.011,2.14,0.293,4.107,0.914,5.902c0.619,1.796,1.617,3.264,2.996,4.404c1.314,1.139,3.025,1.777,5.133,1.914
								c2.106,0.137,4.153-0.293,6.14-1.291c1.987-0.994,3.678-2.59,5.074-4.785c1.394-2.194,2.007-5.053,1.837-8.578
								c-0.059-0.755,0.022-1.335,0.245-1.744c0.222-0.407,0.475-0.611,0.758-0.61c0.283,0.002,0.549,0.225,0.799,0.665
								c0.249,0.442,0.433,1.134,0.556,2.078c0.301,2.519,0.099,4.987-0.605,7.405c-0.706,2.418-1.755,4.614-3.148,6.589
								c-1.394,1.975-3.054,3.664-4.98,5.069c-1.927,1.405-3.961,2.401-6.102,2.987c-2.142,0.586-4.313,0.701-6.513,0.345
								c-2.201-0.358-4.272-1.359-6.212-3.005c-2.005-1.646-3.3-3.635-3.885-5.965c-0.586-2.33-0.667-4.863-0.244-7.598
								c0.423-2.734,1.287-5.592,2.593-8.574c1.304-2.98,2.909-5.914,4.811-8.798c-1.26,0.121-2.501,0.192-3.728,0.217
								c-1.227,0.026-2.47,0.003-3.728-0.067c-0.755-0.004-1.479-0.008-2.17-0.011c-0.693-0.004-1.385,0.025-2.077,0.083
								c-1.151,3.579-2.584,7.127-4.302,10.64c-1.716,3.515-3.574,6.823-5.572,9.927c-1.998,3.103-4.088,5.909-6.271,8.413
								c-2.184,2.504-4.364,4.538-6.543,6.1c-2.178,1.561-4.276,2.557-6.291,2.986c-2.016,0.43-3.838,0.105-5.467-0.972
								c-2.321-1.46-3.804-3.386-4.452-5.779s-0.588-4.972,0.182-7.737c0.769-2.764,2.2-5.586,4.29-8.471
								c2.091-2.882,4.715-5.526,7.874-7.932c3.158-2.405,6.785-4.478,10.884-6.219c4.098-1.739,8.539-2.849,13.323-3.327
								c1.025-3.958,1.345-7.81,0.957-11.554c-0.391-3.745-1.835-7.102-4.336-10.073c-1.626-1.896-3.38-3.052-5.266-3.472
								c-1.885-0.418-3.664-0.302-5.333,0.35c-1.67,0.652-3.107,1.698-4.31,3.139c-1.203,1.441-1.919,3.057-2.149,4.848
								c-0.23,1.792,0.138,3.634,1.104,5.526c0.964,1.893,2.796,3.6,5.493,5.124c1.191,0.636,1.612,1.394,1.262,2.271
								c-0.351,0.88-1.125,1.551-2.322,2.017c-1.199,0.465-2.646,0.537-4.342,0.213c-1.696-0.323-3.295-1.4-4.795-3.233
								c-1.376-1.643-2.042-3.644-1.998-6.002c0.043-2.359,0.606-4.73,1.688-7.115c1.082-2.385,2.539-4.658,4.376-6.819
								c1.835-2.161,3.842-3.896,6.019-5.206c2.177-1.309,4.414-2.053,6.711-2.229C38.045,8.136,40.165,8.808,42.107,10.328
								 M15.838,71.716c0.94,0.634,2.119,0.751,3.537,0.349c1.417-0.4,2.962-1.194,4.636-2.381c1.672-1.187,3.378-2.72,5.12-4.598
								c1.739-1.878,3.433-3.977,5.081-6.296c1.647-2.317,3.17-4.811,4.568-7.478c1.396-2.666,2.543-5.38,3.439-8.145
								c-3.777,0.484-7.226,1.411-10.347,2.777c-3.121,1.368-5.866,2.975-8.235,4.817c-2.368,1.844-4.33,3.815-5.881,5.915
								c-1.553,2.101-2.664,4.123-3.334,6.069s-0.901,3.723-0.688,5.328C13.946,69.676,14.647,70.893,15.838,71.716 M72.585,28.793
								c-2.022,1.5-3.838,3.142-5.452,4.926c-1.613,1.784-3.054,3.617-4.322,5.498c3.211-0.55,6.155-1.304,8.834-2.267
								c2.678-0.96,4.713-1.971,6.103-3.034c1.388-1.125,2.166-2.221,2.329-3.291c0.162-1.068-0.07-1.918-0.694-2.551
								c-0.626-0.631-1.568-0.936-2.826-0.911C75.297,27.188,73.974,27.731,72.585,28.793"/>
						</g>
					</g>
				</g>
			</g>
		</g>
	</g>
</g>
</svg>
